REM DIRINDEX 1\6,1\2\7,1\2\8,1\2\9,1\3\10,1\3\11,1\4\12,1\4\13,1\4\14,1\5\15,1\5\16,1\5\17
REM DIRNAME cjc040,folder01,folder02,folder03,folder04,folder05,folder06,folder07,folder08,folder09,folder10,folder11,folder12,folder13,folder14,folder15,folder16
TITLE ""
FILE "P2Q_t_0358-0373.mp3" MP3
  TRACK 01 AUDIO
    TITLE "10:cjc040_2366"
    INDEX 01 00:00:00
  TRACK 02 AUDIO
    TITLE "0:"
    INDEX 01 00:01:28
  TRACK 03 AUDIO
    TITLE "11:cjc040_2367"
    INDEX 01 00:02:06
  TRACK 04 AUDIO
    TITLE "0:"
    INDEX 01 00:03:21
  TRACK 05 AUDIO
    TITLE "10:cjc040_2368"
    INDEX 01 00:03:70
  TRACK 06 AUDIO
    TITLE "0:"
    INDEX 01 00:04:70
  TRACK 07 AUDIO
    TITLE "11:cjc040_2369"
    INDEX 01 00:05:52
  TRACK 08 AUDIO
    TITLE "0:"
    INDEX 01 00:08:70
  TRACK 09 AUDIO
    TITLE "10:cjc040_2370"
    INDEX 01 00:09:55
  TRACK 10 AUDIO
    TITLE "0:"
    INDEX 01 00:11:19
  TRACK 11 AUDIO
    TITLE "11:cjc040_2371"
    INDEX 01 00:11:74
  TRACK 12 AUDIO
    TITLE "0:"
    INDEX 01 00:14:62
  TRACK 13 AUDIO
    TITLE "10:cjc040_2372"
    INDEX 01 00:15:42
  TRACK 14 AUDIO
    TITLE "0:"
    INDEX 01 00:16:51
  TRACK 15 AUDIO
    TITLE "11:cjc040_2373"
    INDEX 01 00:17:25
  TRACK 16 AUDIO
    TITLE "0:"
    INDEX 01 00:19:20
  TRACK 17 AUDIO
    TITLE "10:cjc040_2374"
    INDEX 01 00:19:71
  TRACK 18 AUDIO
    TITLE "0:"
    INDEX 01 00:21:02
  TRACK 19 AUDIO
    TITLE "11:cjc040_2375"
    INDEX 01 00:21:60
  TRACK 20 AUDIO
    TITLE "0:"
    INDEX 01 00:24:25
  TRACK 21 AUDIO
    TITLE "10:cjc040_2376"
    INDEX 01 00:25:05
  TRACK 22 AUDIO
    TITLE "0:"
    INDEX 01 00:26:42
  TRACK 23 AUDIO
    TITLE "11:cjc040_2377"
    INDEX 01 00:27:18
  TRACK 24 AUDIO
    TITLE "0:"
    INDEX 01 00:28:37
  TRACK 25 AUDIO
    TITLE "10:cjc040_2378"
    INDEX 01 00:29:15
  TRACK 26 AUDIO
    TITLE "0:"
    INDEX 01 00:30:46
  TRACK 27 AUDIO
    TITLE "11:cjc040_2379"
    INDEX 01 00:31:26
  TRACK 28 AUDIO
    TITLE "0:"
    INDEX 01 00:32:35
  TRACK 29 AUDIO
    TITLE "10:cjc040_2380"
    INDEX 01 00:33:21
  TRACK 30 AUDIO
    TITLE "0:"
    INDEX 01 00:34:30
  TRACK 31 AUDIO
    TITLE "11:cjc040_2381"
    INDEX 01 00:35:08
  TRACK 32 AUDIO
    TITLE "0:"
    INDEX 01 00:38:73
  TRACK 33 AUDIO
    TITLE "10:cjc040_2382"
    INDEX 01 00:39:54
  TRACK 34 AUDIO
    TITLE "0:"
    INDEX 01 00:40:73
  TRACK 35 AUDIO
    TITLE "11:cjc040_2383"
    INDEX 01 00:41:55
  TRACK 36 AUDIO
    TITLE "0:"
    INDEX 01 00:43:31
  TRACK 37 AUDIO
    TITLE "10:cjc040_2384"
    INDEX 01 00:44:16
  TRACK 38 AUDIO
    TITLE "0:"
    INDEX 01 00:45:26
  TRACK 39 AUDIO
    TITLE "11:cjc040_2385"
    INDEX 01 00:46:09
  TRACK 40 AUDIO
    TITLE "0:"
    INDEX 01 00:51:48
  TRACK 41 AUDIO
    TITLE "10:cjc040_2386"
    INDEX 01 00:52:30
  TRACK 42 AUDIO
    TITLE "0:"
    INDEX 01 00:53:45
  TRACK 43 AUDIO
    TITLE "11:cjc040_2387"
    INDEX 01 00:54:29
  TRACK 44 AUDIO
    TITLE "0:"
    INDEX 01 00:58:66
  TRACK 45 AUDIO
    TITLE "10:cjc040_2388"
    INDEX 01 00:59:45
  TRACK 46 AUDIO
    TITLE "0:"
    INDEX 01 01:00:59
  TRACK 47 AUDIO
    TITLE "11:cjc040_2389"
    INDEX 01 01:01:44
  TRACK 48 AUDIO
    TITLE "0:"
    INDEX 01 01:03:27
  TRACK 49 AUDIO
    TITLE "10:cjc040_2390"
    INDEX 01 01:04:05
  TRACK 50 AUDIO
    TITLE "0:"
    INDEX 01 01:05:34
  TRACK 51 AUDIO
    TITLE "11:cjc040_2391"
    INDEX 01 01:06:16
  TRACK 52 AUDIO
    TITLE "0:"
    INDEX 01 01:08:03
  TRACK 53 AUDIO
    TITLE "10:cjc040_2392"
    INDEX 01 01:08:60
  TRACK 54 AUDIO
    TITLE "0:"
    INDEX 01 01:10:06
  TRACK 55 AUDIO
    TITLE "11:cjc040_2393"
    INDEX 01 01:10:61
  TRACK 56 AUDIO
    TITLE "0:"
    INDEX 01 01:15:09
  TRACK 57 AUDIO
    TITLE "10:cjc040_2394"
    INDEX 01 01:15:62
  TRACK 58 AUDIO
    TITLE "0:"
    INDEX 01 01:17:00
  TRACK 59 AUDIO
    TITLE "11:cjc040_2395"
    INDEX 01 01:17:61
  TRACK 60 AUDIO
    TITLE "0:"
    INDEX 01 01:21:47
  TRACK 61 AUDIO
    TITLE "10:cjc040_2396"
    INDEX 01 01:22:23
  TRACK 62 AUDIO
    TITLE "0:"
    INDEX 01 01:23:38
  TRACK 63 AUDIO
    TITLE "11:cjc040_2397"
    INDEX 01 01:24:20
  TRACK 64 AUDIO
    TITLE "0:"
    INDEX 01 01:25:68
